<svg xmlns="http://www.w3.org/2000/svg" width="1200" height="520" viewBox="0 0 1200 520" role="img" aria-label="Tharindu Abeysinghe. Yellow glass cyberpunk banner cycling through building, intelligence, software, and learning.">
<defs>
<linearGradient id="yg-bg" x2="1" y2="1"><stop stop-color="#16180a" /><stop offset=".45" stop-color="#080a09" /><stop offset="1" stop-color="#211606" /></linearGradient>
<linearGradient id="yg-glass" x2="1" y2="1"><stop stop-color="#f5ffac" stop-opacity=".23" /><stop offset=".38" stop-color="#d5d780" stop-opacity=".045" /><stop offset="1" stop-color="#ffd666" stop-opacity=".18" /></linearGradient>
<linearGradient id="yg-edge"><stop stop-color="#fcffa7" /><stop offset=".45" stop-color="#eeff38" /><stop offset="1" stop-color="#ffa52e" /></linearGradient>
<linearGradient id="yg-type"><stop stop-color="#f4ff52"><animate attributeName="stop-color" values="#f4ff52;#ffd448;#ffe88f;#eaff81;#f4ff52" dur="24s" repeatCount="indefinite" /></stop><stop offset="1" stop-color="#ffe094"><animate attributeName="stop-color" values="#ffe094;#ffab4c;#f6ffbe;#fff069;#ffe094" dur="24s" repeatCount="indefinite" /></stop></linearGradient>
<radialGradient id="yg-aura"><stop stop-color="#d9f235" stop-opacity=".24" /><stop offset="1" stop-color="#d9f235" stop-opacity="0" /></radialGradient>
<linearGradient id="yg-sheen"><stop stop-color="#ffffd5" stop-opacity="0" /><stop offset=".5" stop-color="#ffffd5" stop-opacity=".15" /><stop offset="1" stop-color="#ffffd5" stop-opacity="0" /></linearGradient>
<pattern id="yg-grid" width="36" height="36" patternUnits="userSpaceOnUse"><path d="M36 0H0V36" fill="none" stroke="#eaff67" stroke-opacity=".035" /></pattern>
<pattern id="yg-hazard" width="16" height="16" patternUnits="userSpaceOnUse" patternTransform="rotate(35)"><rect width="7" height="16" fill="#eaff4e" fill-opacity=".5" /></pattern>
<filter id="yg-shadow" x="-40%" y="-30%" width="180%" height="190%"><feDropShadow dx="0" dy="20" stdDeviation="18" flood-opacity=".7" /></filter>
<clipPath id="yg-clip"><rect width="1200" height="520" rx="14" /></clipPath>
</defs>
<g clip-path="url(#yg-clip)">
<rect width="1200" height="520" fill="url(#yg-bg)" /><rect width="1200" height="520" fill="url(#yg-grid)" />
<ellipse cx="929" cy="247" rx="390" ry="285" fill="url(#yg-aura)" />
<path d="M624 0H774L429 520H279Z" fill="#eaff5a" fill-opacity=".025" /><path d="M1104-30L723 550" stroke="#eeff8c" stroke-opacity=".08" stroke-width="65" />
<path d="M34 69H1166M34 454H1166" stroke="#eaff82" stroke-opacity=".16" />
<g font-family="monospace" font-size="10" letter-spacing="1.5"><text x="34" y="42" fill="#f0ff74">T / 336</text><text x="142" y="42" fill="#aab199">THARINDU ABEYSINGHE</text><text x="955" y="42" fill="#ced998">YELLOW DISTRICT / 06</text></g>
<rect x="34" y="88" width="187" height="25" rx="3" fill="#eaff4e" fill-opacity=".09" stroke="#eaff4e" stroke-opacity=".25" /><text x="46" y="105" fill="#f0ff8c" font-family="monospace" font-size="9" letter-spacing="1.5">CURIOSITY IS THE ENGINE</text>
<g id="yg-slides"><g id="banner-slide-0" opacity="1" aria-hidden="true"><animate attributeName="opacity" values="1;1;0;0;1" keyTimes="0.0;0.22916666666666666;0.25;0.9791666666666666;1.0" dur="24s" repeatCount="indefinite" /><text x="30" y="207" font-family="Impact,Arial Narrow,Arial,sans-serif" font-weight="900" font-size="92" letter-spacing="-1" fill="#f1f4dc">BUILD</text><text x="30" y="294" font-family="Impact,Arial Narrow,Arial,sans-serif" font-weight="900" font-size="76" letter-spacing="-1" fill="url(#yg-type)">WHAT'S NEXT.</text><text x="34" y="339" font-family="Arial" font-size="15" fill="#b5bea6">Learning in public. Turning curiosity into code.</text><text x="34" y="375" font-family="monospace" font-size="11" letter-spacing="1.5" fill="#edf58d">CODE / DATA / INTELLIGENCE</text><text x="34" y="418" font-family="monospace" font-size="10" letter-spacing="2" fill="#e4ef80">01 / BUILD</text></g><g id="banner-slide-1" opacity="0" aria-hidden="true"><animate attributeName="opacity" values="0;0;1;1;0;0" keyTimes="0.0;0.22916666666666666;0.25;0.4791666666666667;0.5;1.0" dur="24s" repeatCount="indefinite" /><text x="30" y="207" font-family="Impact,Arial Narrow,Arial,sans-serif" font-weight="900" font-size="92" letter-spacing="-1" fill="#f1f4dc">EXPLORE</text><text x="30" y="294" font-family="Impact,Arial Narrow,Arial,sans-serif" font-weight="900" font-size="69" letter-spacing="-1" fill="url(#yg-type)">INTELLIGENCE.</text><text x="34" y="339" font-family="Arial" font-size="15" fill="#b5bea6">Connecting Python, knowledge graphs, and intelligent tools.</text><text x="34" y="375" font-family="monospace" font-size="11" letter-spacing="1.5" fill="#edf58d">PYTHON / NEO4J / LANGCHAIN</text><text x="34" y="418" font-family="monospace" font-size="10" letter-spacing="2" fill="#e4ef80">02 / EXPLORE</text></g><g id="banner-slide-2" opacity="0" aria-hidden="true"><animate attributeName="opacity" values="0;0;1;1;0;0" keyTimes="0.0;0.4791666666666667;0.5;0.7291666666666666;0.75;1.0" dur="24s" repeatCount="indefinite" /><text x="30" y="207" font-family="Impact,Arial Narrow,Arial,sans-serif" font-weight="900" font-size="92" letter-spacing="-1" fill="#f1f4dc">CREATE</text><text x="30" y="294" font-family="Impact,Arial Narrow,Arial,sans-serif" font-weight="900" font-size="62" letter-spacing="-1" fill="url(#yg-type)">USEFUL SOFTWARE.</text><text x="34" y="339" font-family="Arial" font-size="15" fill="#b5bea6">From interfaces to APIs. Making ideas work together.</text><text x="34" y="375" font-family="monospace" font-size="11" letter-spacing="1.5" fill="#edf58d">NEXT.JS / JAVA / SPRING BOOT</text><text x="34" y="418" font-family="monospace" font-size="10" letter-spacing="2" fill="#e4ef80">03 / CREATE</text></g><g id="banner-slide-3" opacity="0" aria-hidden="true"><animate attributeName="opacity" values="0;0;1;1;0" keyTimes="0.0;0.7291666666666666;0.75;0.9791666666666666;1.0" dur="24s" repeatCount="indefinite" /><text x="30" y="207" font-family="Impact,Arial Narrow,Arial,sans-serif" font-weight="900" font-size="92" letter-spacing="-1" fill="#f1f4dc">LEARN</text><text x="30" y="294" font-family="Impact,Arial Narrow,Arial,sans-serif" font-weight="900" font-size="68" letter-spacing="-1" fill="url(#yg-type)">WITHOUT LIMITS.</text><text x="34" y="339" font-family="Arial" font-size="15" fill="#b5bea6">An OUSL student. Every project opens a new possibility.</text><text x="34" y="375" font-family="monospace" font-size="11" letter-spacing="1.5" fill="#edf58d">CURIOSITY / PRACTICE / PROGRESS</text><text x="34" y="418" font-family="monospace" font-size="10" letter-spacing="2" fill="#e4ef80">04 / GROW</text></g></g>
<g fill="none" stroke="#e4f36b" stroke-opacity=".15"><path d="M681 160h37l30-30h65M1098 355h-44l-26 26h-66" /><circle cx="681" cy="160" r="3" /><circle cx="1098" cy="355" r="3" /></g>
<g><animateTransform attributeName="transform" type="translate" values="0 0;0 -10;0 0" dur="8s" repeatCount="indefinite" />
<g transform="rotate(-7 926 255)">
<path d="M770 105H1090L1110 125V387H790L770 367Z" fill="#ecffb0" fill-opacity=".035" stroke="#f7fba0" stroke-opacity=".18" transform="translate(-22 19)" />
<path d="M770 91H1078L1103 116V379H795L770 354Z" fill="url(#yg-glass)" stroke="url(#yg-edge)" stroke-opacity=".65" filter="url(#yg-shadow)" />
<path d="M792 92H1069M1102 129V352" stroke="#fcffd2" stroke-opacity=".5" />
<path d="M771 279L1000 92H1077L771 350Z" fill="#ffffd1" fill-opacity=".045" />
<text x="792" y="122" fill="#eaff8c" font-family="monospace" font-size="9" letter-spacing="1.4">PERSONAL ID / THARINDU336</text>
<path d="M875 151L930 119L985 151V213L930 245L875 213Z" fill="#f3ff96" fill-opacity=".06" stroke="#efffa0" stroke-opacity=".5" />
<path d="M886 158L930 133L974 158V207L930 232L886 207Z" fill="none" stroke="#e6ff62" stroke-opacity=".18" />
<text x="930" y="206" fill="#f9ffdb" text-anchor="middle" font-family="Arial" font-weight="900" font-size="71">T</text>
<g font-family="Arial"><text x="792" y="283" fill="#f6f8e9" font-size="28" font-weight="700">Tharindu.</text><text x="792" y="307" fill="#c4c9ad" font-size="12">The Open University of Sri Lanka</text></g>
<path d="M792 325H1080" stroke="#f6ffc4" stroke-opacity=".18" /><g font-family="monospace" font-size="9" letter-spacing="1"><text x="792" y="349" fill="#aab597">STUDENT / BUILDER</text><text x="994" y="349" fill="#edff6b">SRI LANKA</text></g>
</g></g>
<g id="yg-float-logos"><g><animateTransform attributeName="transform" type="translate" values="0 0;0 -8;0 0" dur="7s" repeatCount="indefinite" /><rect x="704" y="112" width="58" height="58" rx="11" fill="url(#yg-glass)" stroke="#dfe97c" stroke-opacity=".55" /><svg viewBox="0 0 128 128" x="715" y="123" width="36" height="36"><linearGradient id="python-python-original-a" gradientUnits="userSpaceOnUse" x1="70.252" y1="1237.476" x2="170.659" y2="1151.089" gradientTransform="matrix(.563 0 0 -.568 -29.215 707.817)"><stop offset="0" stop-color="#5A9FD4" /><stop offset="1" stop-color="#306998" /></linearGradient><linearGradient id="python-python-original-b" gradientUnits="userSpaceOnUse" x1="209.474" y1="1098.811" x2="173.62" y2="1149.537" gradientTransform="matrix(.563 0 0 -.568 -29.215 707.817)"><stop offset="0" stop-color="#FFD43B" /><stop offset="1" stop-color="#FFE873" /></linearGradient><path fill="url(#python-python-original-a)" d="M63.391 1.988c-4.222.02-8.252.379-11.8 1.007-10.45 1.846-12.346 5.71-12.346 12.837v9.411h24.693v3.137H29.977c-7.176 0-13.46 4.313-15.426 12.521-2.268 9.405-2.368 15.275 0 25.096 1.755 7.311 5.947 12.519 13.124 12.519h8.491V67.234c0-8.151 7.051-15.34 15.426-15.34h24.665c6.866 0 12.346-5.654 12.346-12.548V15.833c0-6.693-5.646-11.72-12.346-12.837-4.244-.706-8.645-1.027-12.866-1.008zM50.037 9.557c2.55 0 4.634 2.117 4.634 4.721 0 2.593-2.083 4.69-4.634 4.69-2.56 0-4.633-2.097-4.633-4.69-.001-2.604 2.073-4.721 4.633-4.721z" transform="translate(0 10.26)" /><path fill="url(#python-python-original-b)" d="M91.682 28.38v10.966c0 8.5-7.208 15.655-15.426 15.655H51.591c-6.756 0-12.346 5.783-12.346 12.549v23.515c0 6.691 5.818 10.628 12.346 12.547 7.816 2.297 15.312 2.713 24.665 0 6.216-1.801 12.346-5.423 12.346-12.547v-9.412H63.938v-3.138h37.012c7.176 0 9.852-5.005 12.348-12.519 2.578-7.735 2.467-15.174 0-25.096-1.774-7.145-5.161-12.521-12.348-12.521h-9.268zM77.809 87.927c2.561 0 4.634 2.097 4.634 4.692 0 2.602-2.074 4.719-4.634 4.719-2.55 0-4.633-2.117-4.633-4.719 0-2.595 2.083-4.692 4.633-4.692z" transform="translate(0 10.26)" /><radialGradient id="python-python-original-c" cx="1825.678" cy="444.45" r="26.743" gradientTransform="matrix(0 -.24 -1.055 0 532.979 557.576)" gradientUnits="userSpaceOnUse"><stop offset="0" stop-color="#B8B8B8" stop-opacity=".498" /><stop offset="1" stop-color="#7F7F7F" stop-opacity="0" /></radialGradient><path opacity=".444" fill="url(#python-python-original-c)" d="M97.309 119.597c0 3.543-14.816 6.416-33.091 6.416-18.276 0-33.092-2.873-33.092-6.416 0-3.544 14.815-6.417 33.092-6.417 18.275 0 33.091 2.872 33.091 6.417z" /></svg></g><g><animateTransform attributeName="transform" type="translate" values="0 0;0 -8;0 0" dur="8s" repeatCount="indefinite" /><rect x="1084" y="227" width="58" height="58" rx="11" fill="url(#yg-glass)" stroke="#dfe97c" stroke-opacity=".55" /><svg viewBox="0 0 128 128" x="1095" y="238" width="36" height="36"><path fill="#0074BD" d="M47.617 98.12s-4.767 2.774 3.397 3.71c9.892 1.13 14.947.968 25.845-1.092 0 0 2.871 1.795 6.873 3.351-24.439 10.47-55.308-.607-36.115-5.969zm-2.988-13.665s-5.348 3.959 2.823 4.805c10.567 1.091 18.91 1.18 33.354-1.6 0 0 1.993 2.025 5.132 3.131-29.542 8.64-62.446.68-41.309-6.336z" /><path fill="#EA2D2E" d="M69.802 61.271c6.025 6.935-1.58 13.17-1.58 13.17s15.289-7.891 8.269-17.777c-6.559-9.215-11.587-13.792 15.635-29.58 0 .001-42.731 10.67-22.324 34.187z" /><path fill="#0074BD" d="M102.123 108.229s3.529 2.91-3.888 5.159c-14.102 4.272-58.706 5.56-71.094.171-4.451-1.938 3.899-4.625 6.526-5.192 2.739-.593 4.303-.485 4.303-.485-4.953-3.487-32.013 6.85-13.743 9.815 49.821 8.076 90.817-3.637 77.896-9.468zM49.912 70.294s-22.686 5.389-8.033 7.348c6.188.828 18.518.638 30.011-.326 9.39-.789 18.813-2.474 18.813-2.474s-3.308 1.419-5.704 3.053c-23.042 6.061-67.544 3.238-54.731-2.958 10.832-5.239 19.644-4.643 19.644-4.643zm40.697 22.747c23.421-12.167 12.591-23.86 5.032-22.285-1.848.385-2.677.72-2.677.72s.688-1.079 2-1.543c14.953-5.255 26.451 15.503-4.823 23.725 0-.002.359-.327.468-.617z" /><path fill="#EA2D2E" d="M76.491 1.587S89.459 14.563 64.188 34.51c-20.266 16.006-4.621 25.13-.007 35.559-11.831-10.673-20.509-20.07-14.688-28.815C58.041 28.42 81.722 22.195 76.491 1.587z" /><path fill="#0074BD" d="M52.214 126.021c22.476 1.437 57-.8 57.817-11.436 0 0-1.571 4.032-18.577 7.231-19.186 3.612-42.854 3.191-56.887.874 0 .001 2.875 2.381 17.647 3.331z" /></svg></g><g><animateTransform attributeName="transform" type="translate" values="0 0;0 -8;0 0" dur="9s" repeatCount="indefinite" /><rect x="730" y="364" width="58" height="58" rx="11" fill="url(#yg-glass)" stroke="#dfe97c" stroke-opacity=".55" /><svg viewBox="0 0 128 128" x="741" y="375" width="36" height="36"><path fill="#ffa000" d="M17.474 103.276 33.229 2.462a2.91 2.91 0 0 1 5.44-.924l16.294 30.39 6.494-12.366a2.91 2.91 0 0 1 5.15 0l43.97 83.714H17.474Z" /><path fill="#f57c00" d="M71.903 64.005 54.955 31.913l-37.481 71.363Z" /><path fill="#ffca28" d="M110.577 103.276 98.51 28.604a2.913 2.913 0 0 0-1.984-2.286 2.906 2.906 0 0 0-2.94.714l-76.112 76.243 42.115 23.618a8.728 8.728 0 0 0 8.51 0l42.478-23.618Z" /><path fill="#fff" fill-opacity=".2" d="M98.51 28.604a2.913 2.913 0 0 0-1.984-2.286 2.906 2.906 0 0 0-2.94.713L78.479 42.178 66.6 19.562a2.91 2.91 0 0 0-5.15 0l-6.494 12.365L38.662 1.538A2.91 2.91 0 0 0 35.605.044a2.907 2.907 0 0 0-2.384 2.425L17.474 103.276h-.051l.05.058.415.204 75.676-75.764a2.91 2.91 0 0 1 4.932 1.571l11.965 74.003.116-.073L98.51 28.603Zm-80.898 74.534L33.228 3.182A2.91 2.91 0 0 1 35.613.756a2.911 2.911 0 0 1 3.057 1.495l16.292 30.39 6.495-12.366a2.91 2.91 0 0 1 5.15 0L78.245 42.41 17.61 103.138Z" /><path fill="#a52714" d="M68.099 126.18a8.728 8.728 0 0 1-8.51 0l-42.015-23.55-.102.647 42.115 23.61a8.728 8.728 0 0 0 8.51 0l42.48-23.61-.11-.67-42.37 23.575z" opacity=".2" /></svg></g></g>
<rect x="34" y="453" width="0" height="2" fill="url(#yg-edge)"><animate attributeName="width" from="0" to="1132" dur="6s" repeatCount="indefinite" /></rect>
<g font-family="monospace" font-size="9" letter-spacing="1.3"><text x="34" y="486" fill="#a8b297">LEARN / EXPERIMENT / BUILD / REPEAT</text><text x="937" y="486" fill="#eaff70">ALWAYS IN THE MAKING</text></g>
<rect x="1118" y="87" width="47" height="5" fill="url(#yg-hazard)" />
<path d="M0 32V0H32M1168 0H1200V32M0 488V520H32M1168 520H1200V488" fill="none" stroke="#f0ff57" stroke-width="3" stroke-opacity=".5" />
</g></svg>